# AST/ASF file generated using VICON BodyLanguage
# -----------------------------------------------
:version 1.10
:name VICON
:units
  mass 1.0
  length 0.45
  angle deg
:documentation
   .ast/.asf automatically generated from VICON data using
   VICON BodyBuilder and BodyLanguage model FoxedUp or BRILLIANT.MOD
:root
   order TX TY TZ RX RY RZ
   axis XYZ
   position 0 0 0  
   orientation 0 0 0 
:bonedata
  begin
     id 1 
     name lhipjoint
     direction 0.693937 -0.600361 0.397515 
     length 2.37164 
     axis 0 0 0  XYZ
  end
  begin
     id 2 
     name lfemur
     direction 0.34202 -0.939693 0  
     length 6.18497  
     axis 0 0 20  XYZ
    dof rx ry rz
    limits (-160.0 20.0)
           (-70.0 70.0)
           (-60.0 70.0)
  end
  begin
     id 3 
     name ltibia
     direction 0.34202 -0.939693 0   
     length 6.91601   
     axis 0 0 20   XYZ
    dof rx
    limits (-10.0 170.0)
  end
  begin
     id 4 
     name lfoot
     direction 0.0978718 -0.2689 0.958182   
     length 1.81453   
     axis -90 7.62852e-016 20   XYZ
    dof rx rz
    limits (-45.0 90.0)
           (-70.0 20.0)
  end
  begin
     id 5 
     name ltoes
     direction 1.53569e-011 -4.21951e-011 1   
     length 0.912052   
     axis -90 7.62852e-016 20   XYZ
    dof rx
    limits (-90.0 20.0)
  end
  begin
     id 6 
     name rhipjoint
     direction -0.643996 -0.637876 0.422354   
     length 2.23216  
     axis 0 0 0  XYZ 
  end
  begin
     id 7 
     name rfemur
     direction -0.34202 -0.939693 0   
     length 6.15404   
     axis 0 0 -20   XYZ
    dof rx ry rz
    limits (-160.0 20.0)
           (-70.0 70.0)
           (-70.0 60.0)
  end
  begin
     id 8 
     name rtibia
     direction -0.34202 -0.939693 0   
     length 6.86744   
     axis 0 0 -20   XYZ
    dof rx
    limits (-10.0 170.0)
 end
 begin
     id 9 
     name rfoot
     direction -0.118701 -0.326127 0.937844   
     length 1.9243  
     axis -90 -7.62852e-016 -20   XYZ
    dof rx rz
    limits (-45.0 90.0)
           (-20.0 70.0)
  end
  begin
     id 10 
     name rtoes
     direction -1.5356e-011 -4.2181e-011 1   
     length 0.958865   
     axis -90 -7.62852e-016 -20   XYZ
    dof rx
    limits (-90.0 20.0)
  end
  begin
     id 11 
     name lowerback
     direction 0.0310826 0.968686 -0.246334   
     length 2.00021   
     axis 0 0 0   XYZ
    dof rx ry rz
    limits (-20.0 45.0)
           (-30.0 30.0)
           (-30.0 30.0)
  end
  begin
     id 12 
     name upperback
     direction -0.0152834 0.999474 -0.0286152   
     length 2.03728   
     axis 0 0 0   XYZ
    dof rx ry rz
    limits (-20.0 45.0)
           (-30.0 30.0)
           (-30.0 30.0)
  end
  begin
     id 13 
     name thorax
     direction -0.0323701 0.996236 0.0804149   
     length 2.16   
     axis 0 0 0   XYZ
    dof rx ry rz
    limits (-20.0 45.0)
           (-30.0 30.0)
           (-30.0 30.0)
  end
  begin
     id 14 
     name lowerneck
     direction 0.0307935 0.982251 0.185027   
     length 1.43558   
     axis 0 0 0   XYZ
    dof rx ry rz
    limits (-20.0 45.0)
           (-30.0 30.0)
           (-30.0 30.0)
  end
  begin
     id 15 
     name upperneck
     direction -0.0927153 0.994775 0.0427454   
     length 1.44603   
     axis 0 0 0   XYZ
    dof rx ry rz
    limits (-20.0 45.0)
           (-30.0 30.0)
           (-30.0 30.0)
  end
  begin
     id 16
     name head
     direction -0.0341265 0.999406 -0.00472033  
     length 1.45931  
     axis 0 0 0   XYZ
    dof rx ry rz
    limits (-20.0 45.0)
           (-30.0 30.0)
           (-30.0 30.0)
  end
  begin
     id 17 
     name lclavicle
     direction 0.820755 0.555306 -0.134151  
     length 2.66075  
     axis 0 0 0   XYZ
    dof ry rz
    limits (-20.0 10.0)
           (0.0 20.0)
  end
  begin
     id 18 
     name lhumerus
     direction 1 -4.48971e-011 5.24853e-027   
     length 5.0546   
     axis -180 -30 -90   XYZ
    dof rx ry rz
    limits (-60.0 90.0)
           (-90.0 90.0)
           (-90.0 90.0)
  end
  begin
     id 19
     name lradius
     direction 1 -4.48971e-011 2.76575e-028   
     length 3.39013   
     axis -180 -30 -90   XYZ
    dof rx
    limits (-10.0 170.0)
  end
  begin
     id 20
     name lwrist
     direction 1 -4.48939e-011 -2.27826e-027   
     length 1.69507   
     axis 2.17013e-015 90 90   XYZ
    dof ry
    limits (-180.0 0.0)
 end
  begin
     id 21 
     name lhand
     direction 1 -4.49009e-011 -4.55652e-027   
     length 0.572425   
     axis 2.90745e-015 90 90   XYZ
    dof rx rz
    limits (-90.0 90.0)
           (-45.0 45.0)
  end
  begin
     id 22 
     name lfingers
     direction 1 -4.48955e-011 -9.11303e-027   
     length 0.461504   
     axis 5.81489e-015 90 90   XYZ
    dof rx
    limits (0.0 90.0)
  end
  begin
     id 23
     name lthumb
     direction 0.707107 -6.34929e-011 0.707107   
     length 0.66263   
     axis -90 45 2.85299e-015   XYZ
    dof rx rz
    limits (-45.0 45.0)
           (-45.0 45.0)
  end
  begin
     id 24 
     name rclavicle
     direction -0.754477 0.632921 -0.173712   
     length 2.73081  
     axis 0 0 0   XYZ 
    dof ry rz
    limits (-10.0 20.0)
           (-20.0 0.0)
  end
  begin
     id 25 
     name rhumerus
     direction -1 -4.48969e-011 5.1496e-027  
     length 5.0701   
     axis -180 30 90   XYZ
    dof rx ry rz
    limits (-90.0 60.0)
           (-90.0 90.0)
           (-90.0 90.0)
  end
  begin
     id 26 
     name rradius
     direction -1 -4.48967e-011 -7.15624e-028   
     length 3.14957   
     axis -180 30 90   XYZ
    dof rx
    limits (-10.0 170.0)
  end
  begin
     id 27 
     name rwrist
     direction -1 -4.48938e-011 -2.27826e-027   
     length 1.57479   
     axis 2.17013e-015 -90 -90   XYZ
    dof ry
    limits (-180.0 0.0)
  end
  begin
     id 28
     name rhand
     direction -1 -4.49008e-011 -4.55652e-027   
     length 0.718191   
     axis 2.90745e-015 -90 -90   XYZ
    dof rx rz
    limits (-90.0 90.0)
           (-45.0 45.0)
  end
  begin
     id 29
     name rfingers
     direction -1 -4.48953e-011 -9.11303e-027   
     length 0.579024   
     axis 5.81489e-015 -90 -90   XYZ
    dof rx
    limits (0.0 90.0)
  end
  begin
     id 30
     name rthumb
     direction -0.707107 -6.34937e-011 0.707107   
     length 0.831366   
     axis -90 -45 -2.85299e-015   XYZ
    dof rx rz
    limits (-45.0 45.0)
           (-45.0 45.0)
  end
:hierarchy
  begin
    root lhipjoint rhipjoint lowerback
    lhipjoint lfemur
    lfemur ltibia
    ltibia lfoot
    lfoot ltoes
    rhipjoint rfemur
    rfemur rtibia
    rtibia rfoot
    rfoot rtoes
    lowerback upperback
    upperback thorax
    thorax lowerneck lclavicle rclavicle
    lowerneck upperneck
    upperneck head
    lclavicle lhumerus
    lhumerus lradius
    lradius lwrist
    lwrist lhand lthumb
    lhand lfingers
    rclavicle rhumerus
    rhumerus rradius
    rradius rwrist
    rwrist rhand rthumb
    rhand rfingers
  end

#!OML:ASF H:\Male1\Project 1\Capture day 1\Session 1\Male1.ASF
:FULLY-SPECIFIED
:DEGREES
108
root 7.97503 15.2235 3.57274 -52.9913 -82.6952 49.8813
lowerback 7.2929 1.38114 -5.97247
upperback 6.51167 1.31437 -2.9883
thorax 2.60889 0.384561 0.177925
lowerneck -7.83902 4.0171 5.79571
upperneck 24.8741 4.24016 -0.838329
head 9.25445 2.21467 -0.868838
rclavicle 1.12313e-014 5.64548e-014
rhumerus -33.1183 3.20285 -90.1109
rradius 35.2482
rwrist -18.6064
rhand -14.224 0.437374
rfingers 7.12502
rthumb 11.9131 -29.2037
lclavicle 1.12313e-014 5.64548e-014
lhumerus -16.8227 -11.0318 85.2663
lradius 39.3864
lwrist 4.74127
lhand -21.535 14.4333
lfingers 7.12502
lthumb 4.85779 44.3576
rfemur -31.4772 7.68151 17.7116
rtibia 43.7626
rfoot -23.9126 -26.4582
rtoes -16.9713
lfemur 13.8577 -8.33567 -33.9111
ltibia 12.3571
lfoot -17.7681 15.1286
ltoes -3.86559
109
root 7.65002 15.1966 3.61387 -51.767 -82.1098 48.6355
lowerback 7.24213 1.27923 -6.20792
upperback 6.64129 1.17398 -3.01386
thorax 2.77832 0.297546 0.289661
lowerneck -7.70552 3.90884 5.79253
upperneck 24.817 4.09432 -0.832107
head 9.20351 2.14682 -0.884333
rclavicle -2.0773e-014 4.25399e-014
rhumerus -33.5372 2.58979 -89.7353
rradius 34.9491
rwrist -18.5329
rhand -14.0355 0.40238
rfingers 7.12502
rthumb 12.0949 -29.2281
lclavicle -2.0773e-014 4.25399e-014
lhumerus -15.8688 -11.986 85.2178
lradius 41.2845
lwrist 5.50224
lhand -22.0182 14.5085
lfingers 7.12502
lthumb 4.39122 44.443
rfemur -31.4989 8.90705 16.6922
rtibia 39.6106
rfoot -24.5786 -26.9067
rtoes -18.0751
lfemur 16.7628 -7.77334 -34.3166
ltibia 9.41816
lfoot -16.4633 14.3893
ltoes -4.58237
110
root 7.32639 15.1586 3.65035 -50.3466 -81.478 47.1022
lowerback 7.24173 1.16988 -6.45392
upperback 6.82629 1.01945 -3.01737
thorax 2.98001 0.199106 0.429146
lowerneck -7.58304 3.8001 5.76931
upperneck 24.7557 3.95229 -0.828863
head 9.15284 2.07878 -0.896616
rclavicle -1.40143e-014 1.07344e-014
rhumerus -33.9131 2.09037 -89.379
rradius 34.6646
rwrist -18.564
rhand -13.894 0.31938
rfingers 7.12502
rthumb 12.2313 -29.303
lclavicle -1.40143e-014 1.07344e-014
lhumerus -14.9832 -12.8489 85.1745
lradius 43.0705
lwrist 5.79514
lhand -22.6981 14.4197
lfingers 7.12502
lthumb 3.73469 44.3667
rfemur -31.275 10.3575 15.5828
rtibia 36.1702
rfoot -25.4307 -27.2725
rtoes -18.2978
lfemur 19.4741 -7.29147 -34.5937
ltibia 7.0112
lfoot -15.2142 13.4209
ltoes -5.47055
111
root 7.00379 15.1148 3.68269 -48.4834 -80.8677 45.0721
lowerback 7.27853 1.04607 -6.62427
upperback 7.03648 0.846884 -2.97435
thorax 3.19011 0.0922575 0.574605
lowerneck -7.47033 3.69583 5.713
upperneck 24.7105 3.8221 -0.828278
head 9.10921 2.01297 -0.902604
rclavicle 1.89839e-014 1.59028e-015
rhumerus -34.2536 1.69587 -89.0372
rradius 34.3841
rwrist -18.6528
rhand -13.788 0.214508
rfingers 7.12502
rthumb 12.3335 -29.4017
lclavicle 1.89839e-014 1.59028e-015
lhumerus -14.2024 -13.6491 85.1547
lradius 44.7071
lwrist 5.50129
lhand -23.5634 14.072
lfingers 7.12502
lthumb 2.89904 44.032
rfemur -30.8605 11.8204 14.591
rtibia 33.5837
rfoot -26.1957 -27.6895
rtoes -18.053
lfemur 21.286 -6.89123 -34.6823
ltibia 6.38189
lfoot -14.5286 12.2931
ltoes -6.40499
112
root 6.68136 15.0694 3.71179 -45.8769 -80.3561 42.291
lowerback 7.29085 0.901959 -6.61176
upperback 7.26484 0.659956 -2.85845
thorax 3.43463 -0.0165757 0.694525
lowerneck -7.38404 3.59864 5.6254
upperneck 24.674 3.7096 -0.841575
head 9.07368 1.95144 -0.905578
rclavicle 3.73715e-014 9.93923e-015
rhumerus -34.5267 1.37458 -88.6964
rradius 34.0848
rwrist -18.7317
rhand -13.7171 0.137566
rfingers 7.12502
rthumb 12.4019 -29.4745
lclavicle 3.73715e-014 9.93923e-015
lhumerus -13.5064 -14.4198 85.1561
lradius 46.1484
lwrist 4.62238
lhand -24.5673 13.4131
lfingers 7.12502
lthumb 1.92946 43.3841
rfemur -30.2652 12.9448 14.0012
rtibia 31.8795
rfoot -26.7651 -27.9847
rtoes -17.4029
lfemur 21.6823 -6.5688 -34.4951
ltibia 8.39887
lfoot -14.7376 11.107
ltoes -7.33067
